<svg width="129" height="31" viewBox="0 0 129 31" fill="none" xmlns="http://www.w3.org/2000/svg">
<path d="M0.201705 30V0.90909H20.0597V6.61932H7.23295V12.5852H18.7955V18.3097H7.23295V30H0.201705ZM29.3991 30.3693C28.0071 30.3693 26.7713 30.1373 25.6918 29.6733C24.6217 29.1998 23.7741 28.4896 23.1491 27.5426C22.5336 26.5862 22.2259 25.3883 22.2259 23.9489C22.2259 22.7367 22.4389 21.714 22.8651 20.8807C23.2912 20.0473 23.8783 19.3703 24.6264 18.8494C25.3745 18.3286 26.2363 17.9356 27.2116 17.6705C28.187 17.3958 29.2287 17.2112 30.3366 17.1165C31.5772 17.0028 32.5762 16.8845 33.3338 16.7614C34.0914 16.6288 34.6406 16.4441 34.9815 16.2074C35.3319 15.9612 35.5071 15.6155 35.5071 15.1705V15.0994C35.5071 14.3703 35.2562 13.8068 34.7543 13.4091C34.2524 13.0114 33.5753 12.8125 32.723 12.8125C31.8045 12.8125 31.0658 13.0114 30.5071 13.4091C29.9484 13.8068 29.5933 14.3561 29.4418 15.0568L23.0355 14.8295C23.2249 13.5038 23.7126 12.3201 24.4986 11.2784C25.294 10.2273 26.383 9.40341 27.7656 8.80682C29.1577 8.20076 30.8291 7.89773 32.7798 7.89773C34.1719 7.89773 35.455 8.06345 36.6293 8.39489C37.8035 8.71686 38.8262 9.19034 39.6974 9.81534C40.5687 10.4309 41.241 11.1884 41.7145 12.0881C42.1974 12.9877 42.4389 14.0152 42.4389 15.1705V30H35.9048V26.9602H35.7344C35.3461 27.6989 34.849 28.3239 34.2429 28.8352C33.6463 29.3466 32.9408 29.7301 32.1264 29.9858C31.3215 30.2415 30.4124 30.3693 29.3991 30.3693ZM31.544 25.8239C32.2921 25.8239 32.9645 25.6723 33.5611 25.3693C34.1671 25.0663 34.6501 24.6496 35.0099 24.1193C35.3698 23.5795 35.5497 22.9545 35.5497 22.2443V20.1705C35.3509 20.2746 35.1094 20.3693 34.8253 20.4545C34.5507 20.5398 34.2476 20.6203 33.9162 20.696C33.5848 20.7718 33.2438 20.8381 32.8935 20.8949C32.5431 20.9517 32.2069 21.0038 31.8849 21.0511C31.2315 21.1553 30.6728 21.3163 30.2088 21.5341C29.7543 21.7519 29.4039 22.036 29.1577 22.3864C28.9209 22.7273 28.8026 23.1345 28.8026 23.608C28.8026 24.3277 29.0582 24.8769 29.5696 25.2557C30.0904 25.6345 30.7486 25.8239 31.544 25.8239ZM46.6861 30V0.90909H53.6321V11.9176H53.7741C54.0582 11.2547 54.4607 10.6155 54.9815 10C55.5118 9.38447 56.1842 8.88258 56.9986 8.49432C57.8224 8.09659 58.8073 7.89773 59.9531 7.89773C61.4683 7.89773 62.884 8.29545 64.2003 9.09091C65.526 9.88636 66.5961 11.1127 67.4105 12.7699C68.2249 14.4271 68.6321 16.5388 68.6321 19.1051C68.6321 21.5767 68.2391 23.6458 67.4531 25.3125C66.6766 26.9792 65.6255 28.2292 64.2997 29.0625C62.9834 29.8958 61.5204 30.3125 59.9105 30.3125C58.812 30.3125 57.8603 30.1326 57.0554 29.7727C56.2505 29.4129 55.5734 28.9394 55.0241 28.3523C54.4844 27.7652 54.0677 27.1354 53.7741 26.4631H53.5611V30H46.6861ZM53.4901 19.0909C53.4901 20.2652 53.6463 21.2879 53.9588 22.1591C54.2808 23.0303 54.7401 23.7074 55.3366 24.1903C55.9427 24.6638 56.6671 24.9006 57.5099 24.9006C58.3622 24.9006 59.0866 24.6638 59.6832 24.1903C60.2798 23.7074 60.7296 23.0303 61.0327 22.1591C61.3452 21.2879 61.5014 20.2652 61.5014 19.0909C61.5014 17.9167 61.3452 16.8987 61.0327 16.0369C60.7296 15.1752 60.2798 14.5076 59.6832 14.0341C59.0961 13.5606 58.3717 13.3239 57.5099 13.3239C56.6577 13.3239 55.9332 13.5559 55.3366 14.0199C54.7401 14.4839 54.2808 15.1468 53.9588 16.0085C53.6463 16.8703 53.4901 17.8977 53.4901 19.0909ZM86.3487 20.5824V8.18182H93.2805V30H86.6612V25.9375H86.4339C85.951 27.2727 85.1271 28.3333 83.9624 29.1193C82.8071 29.8958 81.4103 30.2841 79.772 30.2841C78.2853 30.2841 76.9785 29.9432 75.8516 29.2614C74.7247 28.5795 73.8487 27.6278 73.2237 26.4062C72.5987 25.1752 72.2815 23.7358 72.272 22.0881V8.18182H79.218V20.7244C79.2275 21.9081 79.54 22.8409 80.1555 23.5227C80.7711 24.2045 81.6091 24.5455 82.6697 24.5455C83.361 24.5455 83.9813 24.3939 84.5305 24.0909C85.0893 23.7784 85.5296 23.3286 85.8516 22.7415C86.183 22.1449 86.3487 21.4252 86.3487 20.5824ZM104.648 0.90909V30H97.7017V0.90909H104.648ZM115.219 30.3693C113.827 30.3693 112.592 30.1373 111.512 29.6733C110.442 29.1998 109.594 28.4896 108.969 27.5426C108.354 26.5862 108.046 25.3883 108.046 23.9489C108.046 22.7367 108.259 21.714 108.685 20.8807C109.112 20.0473 109.699 19.3703 110.447 18.8494C111.195 18.3286 112.057 17.9356 113.032 17.6705C114.007 17.3958 115.049 17.2112 116.157 17.1165C117.397 17.0028 118.397 16.8845 119.154 16.7614C119.912 16.6288 120.461 16.4441 120.802 16.2074C121.152 15.9612 121.327 15.6155 121.327 15.1705V15.0994C121.327 14.3703 121.076 13.8068 120.575 13.4091C120.073 13.0114 119.396 12.8125 118.543 12.8125C117.625 12.8125 116.886 13.0114 116.327 13.4091C115.769 13.8068 115.414 14.3561 115.262 15.0568L108.856 14.8295C109.045 13.5038 109.533 12.3201 110.319 11.2784C111.114 10.2273 112.203 9.40341 113.586 8.80682C114.978 8.20076 116.649 7.89773 118.6 7.89773C119.992 7.89773 121.275 8.06345 122.45 8.39489C123.624 8.71686 124.647 9.19034 125.518 9.81534C126.389 10.4309 127.061 11.1884 127.535 12.0881C128.018 12.9877 128.259 14.0152 128.259 15.1705V30H121.725V26.9602H121.555C121.166 27.6989 120.669 28.3239 120.063 28.8352C119.467 29.3466 118.761 29.7301 117.947 29.9858C117.142 30.2415 116.233 30.3693 115.219 30.3693ZM117.364 25.8239C118.112 25.8239 118.785 25.6723 119.381 25.3693C119.987 25.0663 120.47 24.6496 120.83 24.1193C121.19 23.5795 121.37 22.9545 121.37 22.2443V20.1705C121.171 20.2746 120.93 20.3693 120.646 20.4545C120.371 20.5398 120.068 20.6203 119.737 20.696C119.405 20.7718 119.064 20.8381 118.714 20.8949C118.363 20.9517 118.027 21.0038 117.705 21.0511C117.052 21.1553 116.493 21.3163 116.029 21.5341C115.575 21.7519 115.224 22.036 114.978 22.3864C114.741 22.7273 114.623 23.1345 114.623 23.608C114.623 24.3277 114.879 24.8769 115.39 25.2557C115.911 25.6345 116.569 25.8239 117.364 25.8239Z" fill="black"/>
</svg>
