<svg width="41" height="41" viewBox="0 0 41 41" fill="none" xmlns="http://www.w3.org/2000/svg">
<g clip-path="url(#clip0_11_38)">
<rect width="41" height="41" fill="black"/>
<path d="M3.55043 14V6.72727H8.51491V8.15483H5.30824V9.64631H8.19886V11.0774H5.30824V14H3.55043ZM10.065 14H8.17578L10.6296 6.72727H12.9698L15.4237 14H13.5344L11.8263 8.55966H11.7695L10.065 14ZM9.81286 11.1378H13.7617V12.473H9.81286V11.1378ZM3.55043 26V18.7273H6.5831C7.1276 18.7273 7.58333 18.8042 7.95028 18.9581C8.3196 19.112 8.59659 19.3274 8.78125 19.6044C8.96828 19.8814 9.06179 20.2022 9.06179 20.5668C9.06179 20.8438 9.00379 21.0911 8.88778 21.3089C8.77178 21.5244 8.61198 21.7031 8.40838 21.8452C8.20478 21.9872 7.96922 22.0866 7.7017 22.1435V22.2145C7.99527 22.2287 8.26634 22.308 8.51491 22.4524C8.76586 22.5968 8.96709 22.7981 9.11861 23.0561C9.27012 23.3118 9.34588 23.6148 9.34588 23.9652C9.34588 24.3558 9.24645 24.705 9.04759 25.0128C8.84872 25.3182 8.56108 25.5597 8.18466 25.7372C7.80824 25.9124 7.35133 26 6.81392 26H3.55043ZM5.30824 24.5831H6.39489C6.77604 24.5831 7.05658 24.5109 7.23651 24.3665C7.4188 24.2221 7.50994 24.0208 7.50994 23.7628C7.50994 23.5758 7.46615 23.4148 7.37855 23.2798C7.29096 23.1425 7.16667 23.0372 7.00568 22.9638C6.8447 22.888 6.65175 22.8501 6.42685 22.8501H5.30824V24.5831ZM5.30824 21.7173H6.28125C6.47301 21.7173 6.64347 21.6854 6.79261 21.6214C6.94176 21.5575 7.05777 21.4652 7.14062 21.3445C7.22585 21.2237 7.26847 21.0781 7.26847 20.9077C7.26847 20.6638 7.18205 20.4721 7.00923 20.3324C6.83641 20.1927 6.60322 20.1229 6.30966 20.1229H5.30824V21.7173ZM14.5909 18.7273H16.3452V23.4183C16.3452 23.9605 16.2161 24.4328 15.9581 24.8352C15.7 25.2353 15.3402 25.5455 14.8786 25.7656C14.4169 25.9834 13.8807 26.0923 13.2699 26.0923C12.652 26.0923 12.1122 25.9834 11.6506 25.7656C11.1889 25.5455 10.8303 25.2353 10.5746 24.8352C10.3189 24.4328 10.1911 23.9605 10.1911 23.4183V18.7273H11.9489V23.2656C11.9489 23.5166 12.0033 23.7403 12.1122 23.9368C12.2235 24.1333 12.3786 24.2872 12.5774 24.3984C12.7763 24.5097 13.0071 24.5653 13.2699 24.5653C13.5327 24.5653 13.7623 24.5097 13.9588 24.3984C14.1577 24.2872 14.3127 24.1333 14.424 23.9368C14.5353 23.7403 14.5909 23.5166 14.5909 23.2656V18.7273ZM3.55043 38V30.7273H5.30824V36.5724H8.33381V38H3.55043ZM10.9146 38H9.02539L11.4792 30.7273H13.8194L16.2733 38H14.3841L12.676 32.5597H12.6191L10.9146 38ZM10.6625 35.1378H14.6113V36.473H10.6625V35.1378Z" fill="white"/>
</g>
<defs>
<clipPath id="clip0_11_38">
<rect width="41" height="41" fill="white"/>
</clipPath>
</defs>
</svg>
